<svg width="139" height="28" viewBox="0 0 139 28" fill="none" xmlns="http://www.w3.org/2000/svg">
<path d="M6.31334 14L3.15531 17.1622L0 14L3.15531 10.8378L6.31334 14ZM13.9696 6.32161L19.3768 11.7433L22.5321 8.58109L13.9696 0L5.40715 8.58109L8.56245 11.7433L13.9696 6.32161ZM24.7866 10.8378L21.6313 14L24.7866 17.1622L27.9392 14L24.7866 10.8378ZM13.9696 21.6784L8.56245 16.2595L5.40715 19.4189L13.9696 28L22.5321 19.4189L19.3768 16.2595L13.9696 21.6784ZM13.9696 17.1622L17.1249 14L13.9696 10.8378L10.8143 14L13.9696 17.1622ZM47.2696 17.4658V17.422C47.2696 15.3595 46.1778 14.3283 44.4008 13.6499C45.4926 13.0344 46.4152 12.0688 46.4152 10.3372V10.2935C46.4152 7.88081 44.4882 6.32161 41.3574 6.32161H34.2498V21.6784H41.5376C44.9959 21.6784 47.275 20.2751 47.275 17.4658H47.2696ZM43.0661 10.9007C43.0661 12.0414 42.1244 12.5256 40.6369 12.5256H37.5334V9.2841H40.8607C42.2828 9.2841 43.0716 9.85307 43.0716 10.8624L43.0661 10.9007ZM43.9205 17.0445C43.9205 18.1852 43.0224 18.7104 41.5321 18.7104H37.5334V15.3376H41.4284C43.1589 15.3376 43.9259 15.975 43.9259 17.0063L43.9205 17.0445ZM54.3526 21.6784V6.32161H50.9708V21.6784H54.3526ZM72.4738 21.6784V6.32161H69.1356V15.778L61.957 6.32161H58.8481V21.6784H62.1754V11.9156L69.5942 21.6784H72.4738ZM91.1463 21.6784L84.5682 6.21219H81.4593L74.8949 21.6784H78.3313L79.737 18.2345H86.2168L87.6171 21.6784H91.1463ZM85.0186 15.2501H80.9353L82.9715 10.2716L85.0186 15.2501ZM107.215 21.6784V6.32161H103.877V15.778L96.6954 6.32161H93.5892V21.6784H96.9138V11.9156L104.335 21.6784H107.215ZM124.616 19.2001L122.473 17.0281C121.269 18.1223 120.196 18.8253 118.444 18.8253C115.818 18.8253 114 16.637 114 14V13.9562C114 11.3247 115.862 9.17468 118.444 9.17468C119.975 9.17468 121.174 9.83118 122.364 10.9062L124.501 8.4279C123.079 7.02462 121.351 6.05901 118.46 6.05901C113.755 6.05901 110.471 9.63423 110.471 13.9918V14.0356C110.471 18.4451 113.82 21.9328 118.329 21.9328C121.28 21.941 123.03 20.8878 124.605 19.2001H124.616ZM139 21.6784V18.6694H130.67V15.4388H137.895V12.4299H130.67V9.32786H138.88V6.31888H127.32V21.6757L139 21.6784Z" fill="black"/>
</svg>
