<svg width="85" height="28" viewBox="0 0 85 28" fill="none" xmlns="http://www.w3.org/2000/svg">
<path d="M60.5904 21.5886V0H64.9844V21.5886H60.5904Z" fill="black"/>
<path d="M9.41232 28H0V6.41143H9.03074C13.4247 6.41143 15.9801 8.77714 15.9801 12.48C15.9801 14.88 14.3382 16.4229 13.205 16.9371C14.5579 17.5429 16.3039 18.9029 16.3039 21.7943C16.3039 25.8171 13.4247 28 9.41232 28ZM8.69542 10.1714H4.40552V15.1429H8.69542C10.5571 15.1429 11.5977 14.1371 11.5977 12.6514C11.5977 11.1657 10.5571 10.1714 8.69542 10.1714ZM8.97293 18.9257H4.39396V24.2286H8.97293C10.9618 24.2286 11.9099 23.0171 11.9099 21.5543C11.9099 20.0914 10.9618 18.9257 8.97293 18.9257Z" fill="black"/>
<path d="M29.6939 19.1429V28H25.3347V19.1429L18.5703 6.41143H23.3342L27.5316 15.1086L31.6712 6.41143H36.4352L29.6939 19.1429Z" fill="black"/>
<path d="M48.9002 28H39.4878V6.41143H48.5186C52.9125 6.41143 55.468 8.77714 55.468 12.48C55.468 14.88 53.826 16.4229 52.6928 16.9371C54.0457 17.5429 55.7917 18.9029 55.7917 21.7943C55.7802 25.8171 52.9125 28 48.9002 28ZM48.1717 10.1714H43.8818V15.1429H48.1717C50.0333 15.1429 51.074 14.1371 51.074 12.6514C51.074 11.1657 50.0333 10.1714 48.1717 10.1714ZM48.4492 18.9257H43.8702V24.2286H48.4492C50.438 24.2286 51.3862 23.0171 51.3862 21.5543C51.3862 20.0914 50.4496 18.9257 48.4492 18.9257Z" fill="black"/>
<path d="M79.126 10.1714V28H74.732V10.1714H68.8695V6.41143H85V10.1714H79.126Z" fill="black"/>
</svg>
