<svg width="159" height="28" viewBox="0 0 159 28" fill="none" xmlns="http://www.w3.org/2000/svg">
<path d="M32.0907 7.81706C26.3145 7.81706 21.8013 12.1396 21.8013 17.9263C21.8013 23.713 26.2005 27.9986 32.0907 27.9986C37.9809 27.9986 42.4566 23.639 42.4566 17.8893C42.4566 12.1766 38.0574 7.81706 32.0907 7.81706ZM32.1282 23.8268C28.8389 23.8268 26.4286 21.3084 26.4286 17.9263C26.4286 14.5058 28.7999 11.9888 32.0892 11.9888C35.4175 11.9888 37.8264 14.5442 37.8264 17.9263C37.8264 21.3084 35.4175 23.8268 32.1282 23.8268ZM43.718 12.2136H46.5873V27.6229H51.1771V8.19269H43.718V12.2136ZM10.2504 11.9888C12.6608 11.9888 14.5732 13.4543 15.2991 15.6341H20.1573C19.2769 10.9743 15.3756 7.81706 10.2894 7.81706C4.51325 7.81706 0 12.1396 0 17.9263C0 23.713 4.39923 27.9986 10.2894 27.9986C15.2616 27.9986 19.2394 24.8413 20.1198 20.1431H15.3006C14.6121 22.3229 12.6997 23.8268 10.2894 23.8268C6.96111 23.8268 4.62871 21.3084 4.62871 17.9263C4.62727 14.5072 6.92214 11.9888 10.2504 11.9888ZM130.926 16.0482L127.56 15.5601C125.954 15.3353 124.806 14.8089 124.806 13.5682C124.806 12.2151 126.299 11.5392 128.325 11.5392C130.544 11.5392 131.959 12.4783 132.265 14.0192H136.702C136.204 10.1107 133.144 7.81848 128.441 7.81848C123.582 7.81848 120.37 10.2615 120.37 13.719C120.37 17.0257 122.474 18.9436 126.719 19.5441L130.085 20.0321C131.73 20.2569 132.648 20.8972 132.648 22.0995C132.648 23.6404 131.042 24.2793 128.823 24.2793C126.107 24.2793 124.577 23.1894 124.347 21.5361H119.834C120.256 25.3322 123.276 28 128.784 28C133.795 28 137.122 25.7448 137.122 21.8733C137.122 18.4158 134.712 16.6116 130.926 16.0482ZM48.8822 0.187811C47.1993 0.187811 45.9364 1.39011 45.9364 3.04345C45.9364 4.69678 47.1979 5.89908 48.8822 5.89908C50.5651 5.89908 51.828 4.69678 51.828 3.04345C51.8266 1.39011 50.5651 0.187811 48.8822 0.187811ZM116.239 14.8445C116.239 10.6357 113.638 7.81706 108.13 7.81706C102.929 7.81706 100.022 10.4109 99.4473 14.3948H104C104.229 12.8539 105.453 11.5762 108.054 11.5762C110.388 11.5762 111.535 12.5907 111.535 13.8314C111.535 15.4477 109.431 15.8604 106.83 16.1236C103.311 16.4992 98.9508 17.7015 98.9508 22.2119C98.9508 25.7078 101.591 27.9616 105.798 27.9616C109.087 27.9616 111.153 26.6085 112.186 24.4657C112.339 26.3822 113.792 27.6229 115.82 27.6229H118.498V23.602H116.24V14.8445H116.239ZM111.724 19.7305C111.724 22.3243 109.429 24.2409 106.636 24.2409C104.915 24.2409 103.461 23.5266 103.461 22.0241C103.461 20.1075 105.795 19.5811 107.937 19.3563C110.002 19.1685 111.15 18.7174 111.724 17.8523V19.7305ZM87.3596 7.81706C84.7962 7.81706 82.6544 8.86996 81.1245 10.6357V0H76.5347V27.6244H81.048V25.069C82.5779 26.9101 84.7587 28 87.3596 28C92.8673 28 97.037 23.7158 97.037 17.9277C97.037 12.1396 92.7922 7.81706 87.3596 7.81706ZM86.6711 23.8268C83.3818 23.8268 80.9715 21.3084 80.9715 17.9263C80.9715 14.5442 83.4193 11.9888 86.7086 11.9888C90.0369 11.9888 92.3693 14.5072 92.3693 17.9263C92.3708 21.3098 89.9604 23.8268 86.6711 23.8268ZM65.5583 7.81706C62.575 7.81706 60.6236 9.01936 59.4762 10.7111V8.19269H54.9239V27.6229H59.5137V17.0627C59.5137 14.0932 61.4261 11.9888 64.2564 11.9888C66.8962 11.9888 68.5402 13.83 68.5402 16.4992V27.6244H73.1299V16.162C73.1314 11.2746 70.5695 7.81706 65.5583 7.81706ZM159 17.2875C159 11.7256 154.869 7.81706 149.323 7.81706C143.432 7.81706 139.11 12.1766 139.11 17.9263C139.11 23.9776 143.738 27.9986 149.399 27.9986C154.181 27.9986 157.929 25.2169 158.885 21.2714H154.103C153.414 23.0002 151.731 23.9776 149.474 23.9776C146.528 23.9776 144.31 22.1735 143.813 19.0162H158.999V17.2875H159ZM144.083 15.7849C144.811 13.0787 146.876 11.764 149.247 11.764C151.848 11.764 153.837 13.2295 154.296 15.7849H144.083Z" fill="black"/>
</svg>
