<svg width="140" height="28" viewBox="0 0 140 28" fill="none" xmlns="http://www.w3.org/2000/svg">
<path d="M16.5715 25.0748H10.2464C8.26465 25.0748 8.43344 23.4453 8.22245 22.0653V13.1225C8.22245 13.1225 9.61421 13.0807 11.174 13.0807C12.9033 13.0807 15.0961 12.8298 17.2045 14C16.6679 12.8762 15.8107 11.9329 14.7389 11.2868C13.6671 10.6407 12.4277 10.3201 11.174 10.3646H8.26465V7.48055C8.26465 7.48055 8.26465 4.97286 7.63169 4.26266H11.8062C15.3915 4.26266 18.1742 4.22083 21.0836 6.10124C21.0836 6.10124 20.5358 1.37932 13.5785 1.37932H0C0 1.37932 2.36079 3.38518 2.27639 7.43873L2.36079 23.7373C2.36079 27.8335 4.00573 27.9582 4.00573 27.9582H17.3732C20.4092 27.9582 21.4634 25.8269 21.4634 24.6574L21.5056 23.1108C21.5056 23.1108 20.5358 25.0748 16.5715 25.0748ZM52.1619 23.6955V12.2869C52.1619 7.85694 48.5352 6.68598 45.7946 6.68598C42.2101 6.68598 41.1138 9.65371 40.6503 10.6985C39.8486 7.94058 37.0236 6.68672 34.7465 6.68672C30.4032 6.68672 29.306 10.7821 29.306 10.7821C29.306 10.7821 29.2224 6.81218 25.7223 6.81218H22.3066C22.3066 6.81218 24.2883 7.60602 24.2883 11.033V23.6955C24.2883 27.8745 25.9755 27.9582 25.9755 27.9582H31.6261C30.2766 26.9552 29.4756 25.3668 29.4756 23.6537V12.4123C29.56 11.9105 30.4024 10.2392 32.8062 10.2392C34.1979 10.2392 35.7163 11.6596 35.6741 13.248V23.6955C35.6741 27.9164 37.3612 27.9582 37.3612 27.9582H43.0111C41.6623 26.9134 40.8606 25.3668 40.8606 23.6537V12.4123C41.125 11.6208 41.695 10.9653 42.4458 10.5893C43.1967 10.2132 44.0672 10.1472 44.8671 10.4057C46.1322 10.8239 47.0176 11.9523 47.0598 13.2898V23.6955C47.102 27.9582 48.7462 27.9164 48.7462 27.9164H54.3976C53.7209 27.4321 53.1668 26.7989 52.7789 26.0665C52.3909 25.3341 52.1798 24.5225 52.1619 23.6955ZM62.0293 23.6955C62.0305 24.5225 62.2254 25.3379 62.5986 26.0776C62.9718 26.8173 63.513 27.461 64.1799 27.9582H58.5292C58.5292 27.9582 56.8006 28 56.8006 23.7373V10.9912C56.8006 7.64784 54.861 6.77036 54.861 6.77036H58.2768C59.499 6.77036 61.9871 6.77037 61.9871 11.4923V23.6126L62.0293 23.6955ZM79.4025 8.39985C79.4025 8.39985 78.8547 6.89582 76.5354 6.89582C72.9938 6.89582 72.1499 11.0748 72.1499 11.0748C71.8545 7.7733 70.9691 6.81218 68.481 6.81218H65.0653C65.0653 6.81218 67.047 7.60602 67.047 11.033V23.6955C67.047 27.8745 68.7349 27.9582 68.7349 27.9582H74.3848C73.718 27.461 73.1767 26.8173 72.8036 26.0776C72.4304 25.3379 72.2355 24.5225 72.2343 23.6955V13.2898C72.3609 12.4123 72.8672 11.6178 73.626 11.1585C75.5234 9.90462 78.0115 10.281 79.4869 11.9941L79.4025 8.39985ZM105.674 9.15261C106.854 9.15261 107.993 9.4446 109.005 9.98826V6.81218H104.282V1.96405C103.27 3.55247 101.963 4.97359 100.487 6.18488C98.8849 7.48055 95.5114 9.11079 95.5114 9.11079L99.0959 9.15261V23.8628C99.0959 27.9582 100.824 27.9582 100.824 27.9582H106.433C105.771 27.4822 105.229 26.8613 104.848 26.1437C104.468 25.4262 104.26 24.6313 104.24 23.821V9.15261H105.674ZM122.794 15.5466C119.632 18.8063 117.144 18.3045 115.161 20.7285C115.161 20.7285 115.499 23.9883 117.987 25.1167C118.831 25.493 122.33 26.7469 124.565 22.9017V26.3287C124.565 26.3287 123.132 28 118.535 28C113.011 28 109.216 23.6955 109.216 17.8452C109.216 12.0778 112.295 6.77036 118.156 6.72854C123.848 6.6449 126.969 11.2421 122.794 15.5466ZM119.336 14.2091C120.264 12.496 121.023 8.14968 117.819 8.39985C114.108 8.69259 114.824 18.4299 114.824 18.4299C116.047 17.0932 117.902 16.8005 119.336 14.2091ZM59.4153 5.09906C60.8485 5.05649 61.9449 3.88628 61.9449 2.50771C61.9027 1.08658 60.7219 0 59.3302 0C57.9392 0.04182 56.8006 1.17022 56.8006 2.54953C56.8006 3.96992 57.9814 5.09831 59.4153 5.09831V5.09906ZM85.2642 25.5349C83.999 25.5349 83.0715 24.1974 83.0715 22.8599C83.0715 17.5943 87.4148 16.8423 88.5955 15.4629V24.3646C88.0477 24.7829 87.5414 25.5349 85.265 25.5349H85.2642ZM88.5955 13.4145C87.2882 15.6721 77.084 16.1731 78.6437 23.9883C79.2767 27.0807 81.3429 28 83.9568 28C86.4872 28 88.0477 26.7051 88.6799 25.4512C89.0597 27.7916 90.2827 27.9582 90.2827 27.9582H95.9326C94.5838 26.9552 93.7398 25.4094 93.7398 23.7373V11.8276C93.7398 8.98607 90.5773 6.77111 87.2038 6.77111C85.3271 6.72883 83.4841 7.26934 81.9329 8.31695V11.9949C81.9329 11.9949 83.1137 9.06972 86.023 9.06972C88.8909 9.06972 89.1019 10.4901 89.1019 11.201C89.1441 11.9531 89.0175 12.7469 88.5955 13.416V13.4145ZM135.276 22.1915C135.319 23.6955 133.969 25.6603 131.102 25.6603C128.149 25.6603 126.969 22.6926 126.969 22.6926V26.4541C128.571 27.4571 130.427 27.9582 132.324 27.9582C136.162 27.9582 140.083 25.0748 139.999 21.0205C139.957 19.6904 139.501 18.4057 138.692 17.3434C137.385 15.6302 135.022 14.4182 133.168 13.2898C132.113 12.6625 131.565 11.4923 131.565 11.1167C131.523 10.4057 131.903 8.98533 134.728 8.98533C137.511 8.98533 138.734 11.9105 138.734 11.9105V8.35803C137.174 7.27146 135.276 6.68672 133.336 6.68672C129.962 6.68672 126.884 8.90169 126.969 11.7432C127.011 14.2509 128.065 15.8393 130.131 17.3852C131.06 18.0474 132.032 18.6476 133.041 19.1819C134.643 20.0602 135.234 21.146 135.276 22.1915Z" fill="black"/>
</svg>
