<svg width="140" height="28" viewBox="0 0 140 28" fill="none" xmlns="http://www.w3.org/2000/svg">
<path d="M4.58692 18.4653C4.58692 20.075 4.94283 21.3108 5.40802 22.0584C6.01793 23.0377 6.92764 23.4526 7.85506 23.4526C9.05127 23.4526 10.1456 23.1579 12.2544 20.2626C13.9439 17.942 15.9346 14.6846 17.274 12.6425L19.5424 9.18283C21.1181 6.7801 22.942 4.10911 25.0331 2.29864C26.7403 0.820943 28.5819 0 30.4352 0C33.5468 0 36.5108 1.78995 38.7791 5.14702C41.2616 8.82366 42.4667 13.4547 42.4667 18.2337C42.4667 21.0748 41.9025 23.1623 40.9426 24.8115C40.0152 26.4065 38.2076 28 35.1669 28V23.4526C37.7705 23.4526 38.4203 21.0777 38.4203 18.3598C38.4203 14.4867 37.5105 10.1885 35.5065 7.11728C34.0844 4.93885 32.2413 3.60775 30.2137 3.60775C28.0207 3.60775 26.2559 5.24963 24.2726 8.17717C23.2181 9.73256 22.1357 11.6281 20.9203 13.7669L19.5823 16.1198C16.8945 20.8505 16.2137 21.928 14.8698 23.7062C12.5143 26.8199 10.503 28 7.85506 28C4.71392 28 2.72764 26.6498 1.49747 24.6151C0.493249 22.9571 0 20.7816 0 18.3026L4.58692 18.4653Z" fill="black"/>
<path d="M3.61667 5.46806C5.71962 2.25026 8.75443 0 12.2352 0C14.2511 0 16.2551 0.592251 18.3477 2.28838C20.6367 4.14283 23.0764 7.19644 26.12 12.2291L27.2114 14.0352C29.846 18.392 31.3449 20.6335 32.2221 21.6905C33.3504 23.048 34.1405 23.4526 35.1669 23.4526C37.7705 23.4526 38.4203 21.0777 38.4203 18.3598L42.4667 18.2337C42.4667 21.0748 41.9025 23.1623 40.9426 24.8115C40.0152 26.4065 38.2076 28 35.1669 28C33.2766 28 31.6019 27.5925 29.75 25.8582C28.3264 24.5271 26.662 22.1625 25.3816 20.0369L21.573 13.7215C19.662 10.552 17.9091 8.1889 16.8945 7.11874C15.8032 5.96796 14.4002 4.57822 12.1614 4.57822C10.3494 4.57822 8.81055 5.84042 7.52278 7.7711L3.61667 5.46806Z" fill="black"/>
<path d="M12.1614 4.57822C10.3494 4.57822 8.81055 5.84042 7.52278 7.7711C5.7019 10.4993 4.58692 14.5629 4.58692 18.4653C4.58692 20.075 4.94283 21.3108 5.40802 22.0584L1.49747 24.6151C0.493249 22.9571 0 20.7816 0 18.3026C0 13.7948 1.24641 9.09633 3.61667 5.46806C5.71962 2.25026 8.75443 0 12.2352 0L12.1614 4.57822Z" fill="black"/>
<path d="M51.3835 0.885443H56.6897L65.7114 17.0873L74.7346 0.885443H79.9255V27.5074H75.597V7.10408L67.6844 21.2331H63.6232L55.712 7.10408V27.5074H51.3835V0.885443ZM93.4884 10.8115C90.3842 10.8115 88.5146 13.1307 88.0671 16.0025H98.6025C98.3854 13.0442 96.6665 10.8115 93.4884 10.8115ZM83.7755 17.6385C83.7755 11.5958 87.7097 7.1979 93.5637 7.1979C99.3217 7.1979 102.76 11.5401 102.76 17.961V19.1411H88.0671C88.5884 22.2651 90.6766 24.3703 94.0437 24.3703C96.73 24.3703 98.4091 23.5566 100.001 22.0687L102.3 24.8643C100.134 26.8419 97.3783 27.9824 93.8901 27.9824C87.5532 27.9824 83.7755 23.3954 83.7755 17.6385ZM108.008 11.1927H104.024V7.67434H108.008V1.85591H112.185V7.67434H118.238V11.1927H112.185V20.1102C112.185 23.155 113.165 24.2369 115.575 24.2369C116.676 24.2369 117.306 24.143 118.238 23.9891V27.4693C117.077 27.7948 115.97 27.9443 114.77 27.9443C110.262 27.9443 108.008 25.4991 108.008 20.6042V11.1927ZM135.824 14.6142C134.985 12.512 133.114 10.964 130.364 10.964C126.79 10.964 124.503 13.481 124.503 17.5814C124.503 21.5791 126.608 24.2178 130.193 24.2178C133.01 24.2178 135.022 22.5906 135.824 20.5661V14.6142ZM140 27.5074H135.9V24.7309C134.754 26.3654 132.669 27.9824 129.292 27.9824C123.86 27.9824 120.23 23.4687 120.23 17.5814C120.23 11.6383 123.947 7.1979 129.522 7.1979C132.278 7.1979 134.44 8.29152 135.9 10.2222V7.67434H140V27.5074Z" fill="black"/>
</svg>
