<svg width="90" height="32" viewBox="0 0 90 32" fill="none" xmlns="http://www.w3.org/2000/svg">
<path d="M9.2646 31.427C7.49991 31.427 5.91778 31.0303 4.5182 30.2369C3.11862 29.4141 2.00809 28.3269 1.1866 26.9752C0.395533 25.5941 0 24.0808 0 22.4353C0 21.1423 0.304256 19.9229 0.912768 18.7769C1.55171 17.6015 2.43405 16.6171 3.5598 15.8237C2.43405 15.0303 1.56692 14.0753 0.958407 12.9587C0.349894 11.8127 0.0456383 10.6226 0.0456383 9.38843C0.0456383 7.74288 0.441171 6.25895 1.23224 4.93664C2.05373 3.61433 3.14905 2.55648 4.5182 1.76309C5.88735 0.969698 7.40863 0.573003 9.08204 0.573003H21.9521V5.24518H9.67534C8.9147 5.24518 8.21491 5.43618 7.57598 5.81818C6.93704 6.1708 6.4198 6.65565 6.02427 7.27273C5.65916 7.88981 5.47661 8.59504 5.47661 9.38843C5.47661 10.0937 5.67438 10.7548 6.06991 11.3719C6.46544 11.989 6.98268 12.4885 7.62161 12.8705C8.26055 13.2231 8.97555 13.3995 9.76662 13.3995H20.3547V18.0716H10.0404C9.12768 18.0716 8.3214 18.2773 7.62161 18.6887C6.92182 19.1001 6.37416 19.6437 5.97863 20.3196C5.61352 20.966 5.43097 21.686 5.43097 22.4793C5.43097 23.2433 5.61352 23.9633 5.97863 24.6391C6.37416 25.2856 6.90661 25.8145 7.57598 26.2259C8.27576 26.6079 9.06683 26.7989 9.94917 26.7989H21.9521V31.427H9.2646Z" fill="url(#paint0_radial_1_563)"/>
<path d="M39.4491 31.9559C38.2016 31.9559 37.0911 31.6621 36.1175 31.0744C35.1743 30.4867 34.444 29.5464 33.9268 28.2534L23.932 0.573003H29.9563L38.445 26.0937C38.5667 26.3875 38.7036 26.6226 38.8558 26.7989C39.0079 26.9458 39.2057 27.0193 39.4491 27.0193C39.6925 27.0193 39.8902 26.9458 40.0424 26.7989C40.2249 26.6226 40.3618 26.3875 40.4531 26.0937L49.2157 0.573003H54.9661L44.9713 28.2534C44.5149 29.4876 43.7847 30.4132 42.7807 31.0303C41.807 31.6474 40.6965 31.9559 39.4491 31.9559Z" fill="url(#paint1_radial_1_563)"/>
<path d="M73.2963 32C70.771 32 68.4739 31.5886 66.405 30.7658C64.3664 29.9137 62.617 28.753 61.1565 27.2838C59.7265 25.8145 58.616 24.1102 57.8249 22.1708C57.0339 20.2314 56.6383 18.1598 56.6383 15.9559C56.6383 13.7521 57.0339 11.6951 57.8249 9.78513C58.616 7.84573 59.7265 6.14142 61.1565 4.67218C62.617 3.20294 64.3664 2.05693 66.405 1.23416C68.4739 0.411387 70.771 0 73.2963 0C75.8521 0 78.1492 0.411387 80.1877 1.23416C82.2263 2.05693 83.9757 3.20294 85.4362 4.67218C86.8966 6.14142 88.0223 7.84573 88.8134 9.78513C89.6045 11.6951 90 13.7521 90 15.9559C90 18.1598 89.6045 20.2314 88.8134 22.1708C88.0223 24.1102 86.8966 25.8145 85.4362 27.2838C83.9757 28.753 82.2263 29.9137 80.1877 30.7658C78.1492 31.5886 75.8521 32 73.2963 32ZM73.2963 27.3278C74.9089 27.3278 76.3998 27.0487 77.7689 26.4904C79.1381 25.9321 80.3247 25.1387 81.3287 24.1102C82.3632 23.0523 83.1542 21.8329 83.7019 20.4518C84.2496 19.0707 84.5234 17.5721 84.5234 15.9559C84.5234 14.3398 84.2496 12.8411 83.7019 11.4601C83.1542 10.079 82.3632 8.88889 81.3287 7.88981C80.3247 6.86134 79.1381 6.06796 77.7689 5.50964C76.3998 4.92195 74.9089 4.6281 73.2963 4.6281C71.6838 4.6281 70.1929 4.92195 68.8238 5.50964C67.4851 6.06796 66.2985 6.86134 65.264 7.88981C64.2599 8.88889 63.4689 10.079 62.8908 11.4601C62.3431 12.8411 62.0693 14.3398 62.0693 15.9559C62.0693 17.6015 62.3431 19.1148 62.8908 20.4959C63.4689 21.8476 64.2599 23.0523 65.264 24.1102C66.2985 25.1387 67.4851 25.9321 68.8238 26.4904C70.1929 27.0487 71.6838 27.3278 73.2963 27.3278Z" fill="url(#paint2_radial_1_563)"/>
<defs>
<radialGradient id="paint0_radial_1_563" cx="0" cy="0" r="1" gradientUnits="userSpaceOnUse" gradientTransform="translate(45 16) rotate(90) scale(16 45)">
<stop stop-color="#025EFE" stop-opacity="0"/>
<stop offset="1" stop-color="#025EFE"/>
</radialGradient>
<radialGradient id="paint1_radial_1_563" cx="0" cy="0" r="1" gradientUnits="userSpaceOnUse" gradientTransform="translate(45 16) rotate(90) scale(16 45)">
<stop stop-color="#025EFE" stop-opacity="0"/>
<stop offset="1" stop-color="#025EFE"/>
</radialGradient>
<radialGradient id="paint2_radial_1_563" cx="0" cy="0" r="1" gradientUnits="userSpaceOnUse" gradientTransform="translate(45 16) rotate(90) scale(16 45)">
<stop stop-color="#025EFE" stop-opacity="0"/>
<stop offset="1" stop-color="#025EFE"/>
</radialGradient>
</defs>
</svg>
