<svg width="44" height="50" viewBox="0 0 44 50" fill="none" xmlns="http://www.w3.org/2000/svg">
<path d="M40.3333 3.57143V46.4286H3.66667V3.57143H40.3333ZM40.3333 0H3.66667C2.69421 0 1.76157 0.376274 1.07394 1.04605C0.386308 1.71582 0 2.62423 0 3.57143V46.4286C0 47.3758 0.386308 48.2842 1.07394 48.954C1.76157 49.6237 2.69421 50 3.66667 50H40.3333C41.3058 50 42.2384 49.6237 42.9261 48.954C43.6137 48.2842 44 47.3758 44 46.4286V3.57143C44 2.62423 43.6137 1.71582 42.9261 1.04605C42.2384 0.376274 41.3058 0 40.3333 0Z" fill="#1A1A1A"/>
<path d="M9.16667 37.5H12.8333V41.0714H9.16667V37.5ZM31.1667 37.5H34.8333V41.0714H31.1667V37.5ZM9.16667 28.5714H12.8333V32.1429H9.16667V28.5714ZM31.1667 28.5714H34.8333V32.1429H31.1667V28.5714ZM9.16667 19.6429H12.8333V23.2143H9.16667V19.6429ZM20.1667 37.5H23.8333V41.0714H20.1667V37.5ZM20.1667 28.5714H23.8333V32.1429H20.1667V28.5714ZM20.1667 19.6429H23.8333V23.2143H20.1667V19.6429ZM31.1667 19.6429H34.8333V23.2143H31.1667V19.6429ZM9.16667 8.92857H34.8333V14.2857H9.16667V8.92857Z" fill="#1A1A1A"/>
</svg>
