<svg width="60" height="50" viewBox="0 0 60 50" fill="none" xmlns="http://www.w3.org/2000/svg">
<path d="M56.25 16.0714H41.25C40.2554 16.0714 39.3016 16.4477 38.5984 17.1175C37.8951 17.7872 37.5 18.6957 37.5 19.6429V46.4286C37.5 47.3758 37.8951 48.2842 38.5984 48.9539C39.3016 49.6237 40.2554 50 41.25 50H56.25C57.2446 50 58.1984 49.6237 58.9017 48.9539C59.6049 48.2842 60 47.3758 60 46.4286V19.6429C60 18.6957 59.6049 17.7872 58.9017 17.1175C58.1984 16.4477 57.2446 16.0714 56.25 16.0714ZM56.25 19.6429V39.2857H41.25V19.6429H56.25ZM41.25 46.4286V42.1429H56.25V46.4286H41.25Z" fill="#1A1A1A"/>
<path d="M33.75 32.1429H3.75V3.57143H48.75V12.5H52.5V3.57143C52.5 2.62423 52.1049 1.71582 51.4016 1.04605C50.6984 0.376274 49.7446 0 48.75 0H3.75C2.75544 0 1.80161 0.376274 1.09835 1.04605C0.395088 1.71582 0 2.62423 0 3.57143V32.1429C0 33.0901 0.395088 33.9985 1.09835 34.6682C1.80161 35.338 2.75544 35.7143 3.75 35.7143H33.75V32.1429Z" fill="#1A1A1A"/>
<path d="M33.75 39.2857H13.125C12.6277 39.2857 12.1508 39.4739 11.7992 39.8087C11.4475 40.1436 11.25 40.5978 11.25 41.0714C11.25 41.545 11.4475 41.9992 11.7992 42.3341C12.1508 42.669 12.6277 42.8571 13.125 42.8571H33.75V39.2857Z" fill="#1A1A1A"/>
</svg>
